<svg xmlns="http://www.w3.org/2000/svg" viewBox="0 0 1024 1024"><path d="M925.85,329.07a3,3,0,0,1-.4.11c6.28,22.15,7.45,47.69,5.51,74.75-3.75,88.75-5.86,177.59-12.9,266.17-1.28,62-44.61,114.92-110.77,111.84-214.82-17.48-431.58-7.53-645.87-24.22,12.33,23.37,33.4,41.74,61.08,48.73,102.76,20,208.54,11.9,312.59,20.86,113.3,4.5,225.81,19.35,338.9,26.43,66,5.39,111.14-46,114.56-107.92,10.1-88.29,15.29-177,22.11-265.56C1017.5,408.45,1005.67,346.85,925.85,329.07Z" style="fill:#f0b2ff"/><path d="M851.82,332c.09-2.93.12-5.83.14-8.73.11-24.4-2.45-47.34-9.26-67.23-12.56-36.66-39.53-62.94-90.72-68.89-148-1.41-296.27,13.74-444.41,5.91-94.8,8.32-265.29-48.34-293.17,93.13-2.56,46.66.31,94-.62,140.77,1.15,60.18-2.87,120.9-3.7,181.12C6.33,659,38.87,708.43,90.88,717.4c2.07.24,4.13.45,6.19.67,17.63,1.87,35.28,3,52.94,3.48,84.62,2.47,169.57-8,254.14-7.22,113.3-4.17,226.62,2,339.93.48,65.94.36,107.29-54,106-116.36C853.39,509.65,851.78,420.8,851.82,332ZM792,575.39c-.09,13.33-.88,26.79-4.21,39.81C780,645.85,754.63,665.37,720.25,666q-47.41.88-94.86-.43c-64.77-1.85-129.54-.68-189.59-1C357.53,666.34,284,668.2,210.46,671c-19.41.74-38.9,1.94-58.34,1.12A223.82,223.82,0,0,1,128.5,670c-24.8-3.68-41.9-14-51.22-31.2Q69.19,623.86,68.94,602c-.3-27.94,1-55.91,1.7-83.86,1.58-66.57.74-133.16,1-199.73.11-30.56,10.45-56.18,40.4-69.77,12.63-5.73,26.37-7.71,40-7.91q8.65-.12,17.3-.14,31.94-.15,63.87.77c60.44,1.68,120.88,3,181.33,2.86,26.19-.05,52.39-.34,78.59-1q72-1.89,144-4.44c24-.9,48-1.42,72-2.11A138.74,138.74,0,0,1,737.29,239c12.4,2.19,22.82,6.8,31.11,13.52,12.88,10.43,20.59,26,22.25,45.68.61,7.35,1,14.7,1.38,22.06q.87,18.56.79,37.14C792.58,430.08,792.5,502.74,792,575.39Z" style="fill:#9830e6"/><path d="M792,320.28c-.34-7.36-.77-14.71-1.38-22.06C789,278.51,781.28,263,768.4,252.54c-8.29-6.72-18.71-11.33-31.11-13.52a138.74,138.74,0,0,0-28.12-2.38c-24,.69-48,1.21-72,2.11q-72,2.67-144,4.44c-26.2.68-52.4,1-78.59,1-60.45.12-120.89-1.18-181.33-2.86q-31.92-.9-63.87-.77-8.64,0-17.3.14c-13.65.2-27.39,2.18-40,7.91-29.95,13.59-40.29,39.21-40.4,69.77-.22,66.57.62,133.16-1,199.73-.66,28-2,55.92-1.7,83.86q.23,21.9,8.34,36.79C86.6,656,103.7,666.3,128.5,670a223.82,223.82,0,0,0,23.62,2.15c19.44.82,38.93-.38,58.34-1.12,73.53-2.81,147.07-4.67,225.34-6.38,60.05.28,124.82-.89,189.59,1q47.4,1.36,94.86.43c34.38-.65,59.72-20.17,67.56-50.82,3.33-13,4.12-26.48,4.21-39.81.48-72.65.56-145.31.8-218Q792.88,338.83,792,320.28ZM579.27,405.87c-2.31,20.45-8.69,38.86-17.68,56s-20.61,32.87-33.37,48a317.41,317.41,0,0,1-33,33.68,382.39,382.39,0,0,1-37.43,28.93c-8.79,6-17.22,9-25.71,9.18S415,579,406,573.37c-22.43-14-43.3-29.58-62-47.36a283.4,283.4,0,0,1-48.72-60.73,128.44,128.44,0,0,1-13.21-29.48c-3.29-11-5.3-23.69-5.61-39.28a58,58,0,0,1,9-29.76,77.56,77.56,0,0,1,27.7-26.22c12.58-7.24,25.32-10.77,38-10.62s25.44,3.94,38,11.36a99.34,99.34,0,0,1,15.18,10.93,80.47,80.47,0,0,1,12.63,14c3.55,5,6.83,7.49,10.09,7.41s6.51-2.71,10-7.87c7.49-11.05,16.08-20.21,26.23-27A79.13,79.13,0,0,1,499,325.88c22.13-2.57,43.46,6.35,58.63,21.46S581.77,383.73,579.27,405.87Z" style="fill:#fdf7ec"/><path d="M925.45,329.18c-10.4-36.65-34.89-63.93-82.75-73.17,6.81,19.89,9.37,42.83,9.26,67.23,0,2.9-.05,5.8-.14,8.73,0,88.83,1.57,177.68-1.76,266.48,1.31,62.31-40,116.72-106,116.36-113.31,1.57-226.63-4.65-339.93-.48-84.57-.81-169.52,9.69-254.14,7.22-17.66-.52-35.31-1.61-52.94-3.48,11.85,17.45,30.08,31.12,57.49,39.13l6.86.52c214.29,16.69,431.05,6.74,645.87,24.22C873.45,785,916.78,732.12,918.06,670.1c7-88.58,9.15-177.42,12.9-266.17C932.9,376.87,931.73,351.33,925.45,329.18Z" style="fill:#ff4770"/><path d="M295.29,465.28A283.4,283.4,0,0,0,344,526c18.67,17.78,39.54,33.34,62,47.36,9,5.66,17.59,8.43,26.08,8.29s16.92-3.19,25.71-9.18a382.39,382.39,0,0,0,37.43-28.93,317.41,317.41,0,0,0,33-33.68c12.76-15.17,24.37-30.95,33.37-48s15.37-35.51,17.68-56c2.5-22.14-6.51-43.42-21.69-58.53s-36.5-24-58.63-21.46a79.13,79.13,0,0,0-35.56,12.84c-10.15,6.81-18.74,16-26.23,27-3.5,5.16-6.75,7.79-10,7.87s-6.54-2.38-10.09-7.41a80.47,80.47,0,0,0-12.63-14,99.34,99.34,0,0,0-15.18-10.93c-12.54-7.42-25.26-11.22-38-11.36s-25.47,3.38-38,10.62a77.56,77.56,0,0,0-27.7,26.22,58,58,0,0,0-9,29.76c.31,15.59,2.32,28.25,5.61,39.28A128.44,128.44,0,0,0,295.29,465.28Z" style="fill:#ff4770"/></svg>
